<?xml version="1.0" encoding="UTF-8"?>
<!DOCTYPE svg PUBLIC "-//W3C//DTD SVG 1.1//EN" "http://www.w3.org/Graphics/SVG/1.1/DTD/svg11.dtd">
<!-- Creator: CorelDRAW 2021 (64-Bit) -->
<svg xmlns="http://www.w3.org/2000/svg" xml:space="preserve" width="168.317mm" height="16.9332mm" version="1.1" style="shape-rendering:geometricPrecision; text-rendering:geometricPrecision; image-rendering:optimizeQuality; fill-rule:evenodd; clip-rule:evenodd"
viewBox="0 0 16831.72 1693.32"
 xmlns:xlink="http://www.w3.org/1999/xlink"
 xmlns:xodm="http://www.corel.com/coreldraw/odm/2003">
 <defs>
  <style type="text/css">
   <![CDATA[
    .fil0 {fill:#2E324D}
    .fil1 {fill:#2E324D}
   ]]>
  </style>
 </defs>
 <g id="Layer_x0020_1">
  <metadata id="CorelCorpID_0Corel-Layer"/>
  <circle class="fil0" cx="4.22" cy="960.96" r="258.23"/>
  <circle class="fil0" cx="427.55" cy="960.95" r="258.23"/>
  <circle class="fil0" cx="850.88" cy="960.94" r="258.23"/>
  <circle class="fil0" cx="1274.21" cy="960.93" r="258.23"/>
  <circle class="fil0" cx="1697.54" cy="960.92" r="258.23"/>
  <circle class="fil0" cx="2120.87" cy="960.91" r="258.23"/>
  <circle class="fil0" cx="2544.2" cy="960.9" r="258.23"/>
  <circle class="fil0" cx="2967.53" cy="960.89" r="258.23"/>
  <circle class="fil0" cx="3390.86" cy="960.88" r="258.23"/>
  <circle class="fil0" cx="3814.19" cy="960.87" r="258.23"/>
  <circle class="fil0" cx="4237.52" cy="960.86" r="258.23"/>
  <circle class="fil0" cx="4660.85" cy="960.85" r="258.23"/>
  <circle class="fil0" cx="5084.18" cy="960.84" r="258.23"/>
  <circle class="fil0" cx="5507.51" cy="960.83" r="258.23"/>
  <circle class="fil0" cx="5930.84" cy="960.82" r="258.23"/>
  <circle class="fil0" cx="6354.17" cy="960.81" r="258.23"/>
  <circle class="fil0" cx="6777.5" cy="960.8" r="258.23"/>
  <circle class="fil0" cx="7200.83" cy="960.79" r="258.23"/>
  <circle class="fil0" cx="7624.16" cy="960.78" r="258.23"/>
  <circle class="fil0" cx="8047.49" cy="960.77" r="258.23"/>
  <circle class="fil0" cx="8470.82" cy="960.76" r="258.23"/>
  <circle class="fil0" cx="8894.15" cy="960.75" r="258.23"/>
  <circle class="fil0" cx="9317.48" cy="960.74" r="258.23"/>
  <circle class="fil0" cx="9740.81" cy="960.73" r="258.23"/>
  <circle class="fil0" cx="10164.14" cy="960.72" r="258.23"/>
  <circle class="fil0" cx="10587.47" cy="960.71" r="258.23"/>
  <circle class="fil0" cx="11010.8" cy="960.7" r="258.23"/>
  <circle class="fil0" cx="11434.13" cy="960.69" r="258.23"/>
  <circle class="fil0" cx="11857.46" cy="960.68" r="258.23"/>
  <circle class="fil0" cx="12280.79" cy="960.67" r="258.23"/>
  <circle class="fil0" cx="12704.12" cy="960.66" r="258.23"/>
  <circle class="fil0" cx="13127.45" cy="960.65" r="258.23"/>
  <circle class="fil0" cx="13550.78" cy="960.64" r="258.23"/>
  <circle class="fil0" cx="13974.11" cy="960.63" r="258.23"/>
  <circle class="fil0" cx="14397.44" cy="960.62" r="258.23"/>
  <circle class="fil0" cx="14820.77" cy="960.61" r="258.23"/>
  <circle class="fil0" cx="15244.1" cy="960.6" r="258.23"/>
  <circle class="fil0" cx="15667.43" cy="960.59" r="258.23"/>
  <circle class="fil0" cx="16090.76" cy="960.58" r="258.23"/>
  <circle class="fil0" cx="16514.09" cy="960.57" r="258.23"/>
  <circle class="fil0" cx="16937.42" cy="960.56" r="258.23"/>
  <circle class="fil0" cx="17360.75" cy="960.55" r="258.23"/>
  <rect class="fil1" x="-254.01" y="-465.69" width="17873.14" height="1426.23"/>
 </g>
</svg>
